<?xml version="1.0" encoding="UTF-8" standalone="no"?>
<svg
  width="449.32812mm"
  height="500mm"
  viewBox="0 0 449.32812 500"
  version="1.1"
  id="svg5"
  xml:space="preserve"
  xmlns="http://www.w3.org/2000/svg"
  xmlns:svg="http://www.w3.org/2000/svg">
  <defs id="defs2" />
  <g
    id="layer2"
    transform="translate(-0.33593998)" >
    <path
      id="path12783"
      style="opacity:1;fill:none;fill-opacity:1;stroke:#1d4ed8;stroke-width:3.36141;stroke-dasharray:none;stroke-opacity:1"
      d="m 271.21684,498.2992 v -54.46307 m 39.17377,54.46307 v -55.0023 m -117.52132,53.86452 v -53.10285 m 39.17379,53.10285 v -52.47811 m 117.54521,53.99717 V 443.26444 H 153.69552 v 54.36053 M 69.927276,15.631465 H 136.4784 V 1.6807075 H 69.900366 Z M 123.47577,31.644224 V 15.75238 H 83.022936 V 32.292723 M 398.38431,498.31929 H 94.726206 M 447.95903,497.19664 V 261.22282 H 53.289476 v 237.06499 m -52.94276997,0.0168 H 100.71426 v -68.94063 h 299.06378 v 68.86665 h 49.88602 M 140.85047,259.64909 V 32.495145 H 64.762906 V 143.56955 H 92.129076 0.78284603 M 337.99708,429.85658 v -135.1715 m -35.11777,135.1715 v -135.1715 m -35.11777,135.1715 v -135.1715 m -35.11776,135.1715 V 294.68508 M 197.526,429.85658 v -135.1715 m -35.11778,135.1715 v -76.88974 -58.28176 m 210.43225,135.1715 V 294.68508 H 127.29045 v 135.1715 M 2.445536,144.49395 v 16.93239 h 36.02014 v 13.44568 H 2.445536 v 18.48779 h 36.02014 v 13.44568 H 2.445536 v 18.4878 h 36.02014 v 13.44568 H 2.445536 v 18.48779 h 36.02014 v 13.44568 H 2.445536 v 18.4878 h 36.02014 v 13.44567 H 2.445536 v 18.4878 h 36.02014 v 13.44568 H 2.445536 v 18.4878 h 36.02014 v 13.44567 H 2.445536 l -0.4289,131.57691" />
  </g>
</svg>